<svg width="18" height="16" viewBox="0 0 18 16" fill="none" xmlns="http://www.w3.org/2000/svg">
<path d="M12 8C12 7.02222 11.2286 6.22222 10.2857 6.22222C9.34286 6.22222 8.57143 7.02222 8.57143 8C8.57143 8.97778 9.34286 9.77778 10.2857 9.77778C11.2286 9.77778 12 8.97778 12 8ZM10.2857 0C6.02571 0 2.57143 3.58222 2.57143 8H0L3.42857 11.5556L6.85714 8H4.28571C4.28571 4.56 6.96857 1.77778 10.2857 1.77778C13.6029 1.77778 16.2857 4.56 16.2857 8C16.2857 11.44 13.6029 14.2222 10.2857 14.2222C8.99143 14.2222 7.79143 13.7867 6.80571 13.0667L5.58857 14.3467C6.89143 15.3778 8.52 16 10.2857 16C14.5457 16 18 12.4178 18 8C18 3.58222 14.5457 0 10.2857 0Z" fill="#FFFDFD"/>
<ellipse cx="10.5" cy="8" rx="2.5" ry="3" fill="#100226"/>
<path d="M10.6916 7.51111C9.57662 7.24889 9.21807 6.97778 9.21807 6.55556C9.21807 6.07111 9.71415 5.73333 10.5442 5.73333C11.4185 5.73333 11.7426 6.11111 11.7721 6.66667H12.8576C12.8232 5.90222 12.3075 5.2 11.2809 4.97333V4H9.80747V4.96C8.85462 5.14667 8.08841 5.70667 8.08841 6.56444C8.08841 7.59111 9.02652 8.10222 10.3969 8.4C11.6248 8.66667 11.8703 9.05778 11.8703 9.47111C11.8703 9.77778 11.6297 10.2667 10.5442 10.2667C9.53242 10.2667 9.13458 9.85778 9.08055 9.33333H8C8.05894 10.3067 8.86444 10.8533 9.80747 11.0356V12H11.2809V11.0444C12.2387 10.88 13 10.3778 13 9.46667C13 8.20444 11.8065 7.77333 10.6916 7.51111Z" fill="#FFFDFD"/>
</svg>
