<svg width="24" height="32" viewBox="0 0 24 32" fill="none" xmlns="http://www.w3.org/2000/svg">
<path d="M4.5 32H7.5V29.0909H4.5V32ZM10.5 32H13.5V29.0909H10.5V32ZM13.5 0H10.5V14.5455H13.5V0ZM18.84 3.54909L16.665 5.65818C19.26 7.18545 21 9.93455 21 13.0909C21 17.9055 16.965 21.8182 12 21.8182C7.035 21.8182 3 17.9055 3 13.0909C3 9.93455 4.74 7.18545 7.32 5.64364L5.16 3.54909C2.04 5.64364 0 9.13455 0 13.0909C0 19.52 5.37 24.7273 12 24.7273C18.63 24.7273 24 19.52 24 13.0909C24 9.13455 21.96 5.64364 18.84 3.54909V3.54909ZM16.5 32H19.5V29.0909H16.5V32Z" fill="white"/>
</svg>
