<svg width="32" height="20" viewBox="0 0 32 20" fill="none" xmlns="http://www.w3.org/2000/svg">
<path d="M26.149 12.5V2.5C26.149 1.125 24.8568 0 23.2775 0H3.17714C1.59783 0 0.305664 1.125 0.305664 2.5V12.5C0.305664 13.875 1.59783 15 3.17714 15H23.2775C24.8568 15 26.149 13.875 26.149 12.5ZM23.2775 12.5H3.17714V2.5H23.2775V12.5ZM13.2273 3.75C10.844 3.75 8.9201 5.425 8.9201 7.5C8.9201 9.575 10.844 11.25 13.2273 11.25C15.6107 11.25 17.5345 9.575 17.5345 7.5C17.5345 5.425 15.6107 3.75 13.2273 3.75ZM31.8919 3.75V17.5C31.8919 18.875 30.5998 20 29.0205 20H4.61288C4.61288 18.75 4.61288 18.875 4.61288 17.5H29.0205V3.75C30.5998 3.75 30.4562 3.75 31.8919 3.75Z" fill="white"/>
</svg>
