<svg width="18" height="16" viewBox="0 0 18 16" fill="none" xmlns="http://www.w3.org/2000/svg">
<path d="M12 8C12 7.02222 11.2286 6.22222 10.2857 6.22222C9.34286 6.22222 8.57143 7.02222 8.57143 8C8.57143 8.97778 9.34286 9.77778 10.2857 9.77778C11.2286 9.77778 12 8.97778 12 8ZM10.2857 0C6.02571 0 2.57143 3.58222 2.57143 8H0L3.42857 11.5556L6.85714 8H4.28571C4.28571 4.56 6.96857 1.77778 10.2857 1.77778C13.6029 1.77778 16.2857 4.56 16.2857 8C16.2857 11.44 13.6029 14.2222 10.2857 14.2222C8.99143 14.2222 7.79143 13.7867 6.80571 13.0667L5.58857 14.3467C6.89143 15.3778 8.52 16 10.2857 16C14.5457 16 18 12.4178 18 8C18 3.58222 14.5457 0 10.2857 0Z" fill="#FFFDFD"/>
</svg>
