<svg width="13" height="18" viewBox="0 0 13 18" fill="none" xmlns="http://www.w3.org/2000/svg">
<circle cx="6.5" cy="9.5" r="6.5" fill="#1600FD"/>
<path d="M5.98 14V7.056H7.744V14H5.98ZM6.862 6.244C6.54467 6.244 6.274 6.14133 6.05 5.936C5.83533 5.73067 5.728 5.46 5.728 5.124C5.728 4.788 5.83533 4.51733 6.05 4.312C6.274 4.10667 6.54467 4.004 6.862 4.004C7.18867 4.004 7.45933 4.10667 7.674 4.312C7.88867 4.51733 7.996 4.788 7.996 5.124C7.996 5.46 7.88867 5.73067 7.674 5.936C7.45933 6.14133 7.18867 6.244 6.862 6.244Z" fill="#FFFDFD"/>
</svg>
