<svg width="13" height="13" viewBox="0 0 13 13" fill="none" xmlns="http://www.w3.org/2000/svg">
<g clip-path="url(#clip0_2_2)">
<path d="M6.5 13C10.0899 13 13 10.0899 13 6.5C13 2.91015 10.0899 0 6.5 0C2.91015 0 0 2.91015 0 6.5C0 10.0899 2.91015 13 6.5 13Z" fill="#100226"/>
<path d="M5.98 11V4.06H7.74V11H5.98ZM6.86 3.24C6.54 3.24 6.27 3.14 6.05 2.93C5.84 2.72 5.73 2.45 5.73 2.12C5.73 1.79 5.84 1.51 6.05 1.31C6.27 1.1 6.54 1 6.86 1C7.18 1 7.46 1.1 7.67 1.31C7.88 1.52 7.99 1.79 7.99 2.12C7.99 2.45 7.88 2.73 7.67 2.93C7.46 3.14 7.18 3.24 6.86 3.24Z" fill="#FFFDFD"/>
</g>
<defs>
<clipPath id="clip0_2_2">
<rect width="13" height="13" fill="white"/>
</clipPath>
</defs>
</svg>
