<svg width="29" height="28" viewBox="0 0 29 28" fill="none" xmlns="http://www.w3.org/2000/svg">
<path d="M25.5751 12.627C25.6285 12.259 25.6685 11.891 25.6685 11.5C25.6685 11.109 25.6285 10.741 25.5751 10.373L28.3892 8.4755C28.6426 8.303 28.7093 7.9925 28.5492 7.7395L25.8819 3.7605C25.7618 3.5765 25.5351 3.473 25.295 3.473C25.215 3.473 25.135 3.4845 25.0683 3.5075L21.7474 4.6575C21.0539 4.1975 20.3071 3.818 19.4935 3.5305L18.9867 0.483C18.9467 0.207 18.6666 0 18.3332 0H12.9984C12.665 0 12.385 0.207 12.3449 0.483L11.8381 3.5305C11.0246 3.818 10.2777 4.209 9.58421 4.6575L6.26333 3.5075C6.18331 3.4845 6.10329 3.473 6.02327 3.473C5.79654 3.473 5.56981 3.5765 5.44978 3.7605L2.78241 7.7395C2.60903 7.9925 2.68905 8.303 2.94245 8.4755L5.75653 10.373C5.70318 10.741 5.66317 11.1205 5.66317 11.5C5.66317 11.8795 5.70318 12.259 5.75653 12.627L2.94245 14.5245C2.68905 14.697 2.62237 15.0075 2.78241 15.2605L5.44978 19.2395C5.56981 19.4235 5.79654 19.527 6.0366 19.527C6.11663 19.527 6.19665 19.5155 6.26333 19.4925L9.58421 18.3425C10.2777 18.8025 11.0246 19.182 11.8381 19.4695L12.3449 22.517C12.385 22.793 12.665 23 12.9984 23H18.3332C18.6666 23 18.9467 22.793 18.9867 22.517L19.4935 19.4695C20.3071 19.182 21.0539 18.791 21.7474 18.3425L25.0683 19.4925C25.1483 19.5155 25.2284 19.527 25.3084 19.527C25.5351 19.527 25.7618 19.4235 25.8819 19.2395L28.5492 15.2605C28.7093 15.0075 28.6426 14.697 28.3892 14.5245L25.5751 12.627ZM22.9344 10.6605C22.9878 11.017 23.0011 11.2585 23.0011 11.5C23.0011 11.7415 22.9744 11.9945 22.9344 12.3395L22.7477 13.639L23.9347 14.444L25.3751 15.41L24.4415 16.8015L22.7477 16.215L21.3607 15.732L20.1603 16.514C19.5869 16.882 19.0401 17.158 18.4932 17.3535L17.0795 17.848L16.8661 19.1475L16.5994 20.7H14.7322L14.4788 19.1475L14.2655 17.848L12.8517 17.3535C12.2783 17.1465 11.7448 16.882 11.2113 16.537L9.99765 15.732L8.58395 16.2265L6.89016 16.813L5.95658 15.4215L7.39697 14.4555L8.58395 13.6505L8.39723 12.351C8.35722 11.9945 8.33054 11.73 8.33054 11.5C8.33054 11.27 8.35722 11.0055 8.39723 10.6605L8.58395 9.361L7.39697 8.556L5.95658 7.59L6.89016 6.1985L8.58395 6.785L9.97098 7.268L11.1713 6.486C11.7448 6.118 12.2916 5.842 12.8384 5.6465L14.2521 5.152L14.4655 3.8525L14.7322 2.3H16.5861L16.8395 3.8525L17.0529 5.152L18.4666 5.6465C19.0401 5.8535 19.5735 6.118 20.107 6.463L21.3207 7.268L22.7344 6.7735L24.4281 6.187L25.3617 7.5785L23.9347 8.556L22.7477 9.361L22.9344 10.6605ZM15.6658 6.9C12.7184 6.9 10.3311 8.9585 10.3311 11.5C10.3311 14.0415 12.7184 16.1 15.6658 16.1C18.6133 16.1 21.0006 14.0415 21.0006 11.5C21.0006 8.9585 18.6133 6.9 15.6658 6.9ZM15.6658 13.8C14.1988 13.8 12.9984 12.765 12.9984 11.5C12.9984 10.235 14.1988 9.2 15.6658 9.2C17.1329 9.2 18.3332 10.235 18.3332 11.5C18.3332 12.765 17.1329 13.8 15.6658 13.8Z" fill="white"/>
<rect y="12.2666" width="23" height="10.7333" fill="#100226"/>
<path d="M20.9336 21.436C22.2262 22.2139 23.1319 23.2677 23.1319 24.6728V27.1819H26.9059V24.6728C26.9059 22.8495 23.5376 21.7706 20.9336 21.436Z" fill="white"/>
<path d="M19.3579 20.491C21.443 20.491 23.1318 18.9939 23.1318 17.1455C23.1318 15.2971 21.443 13.8 19.3579 13.8C18.9144 13.8 18.4993 13.8837 18.103 14.0008C18.8861 14.8622 19.3579 15.9579 19.3579 17.1455C19.3579 18.3331 18.8861 19.4288 18.103 20.2902C18.4993 20.4073 18.9144 20.491 19.3579 20.491Z" fill="white"/>
<path d="M13.6968 20.491C15.7819 20.491 17.4707 18.9939 17.4707 17.1455C17.4707 15.2971 15.7819 13.8 13.6968 13.8C11.6117 13.8 9.92285 15.2971 9.92285 17.1455C9.92285 18.9939 11.6117 20.491 13.6968 20.491ZM13.6968 15.4728C14.7346 15.4728 15.5838 16.2255 15.5838 17.1455C15.5838 18.0655 14.7346 18.8182 13.6968 18.8182C12.659 18.8182 11.8098 18.0655 11.8098 17.1455C11.8098 16.2255 12.659 15.4728 13.6968 15.4728Z" fill="white"/>
<path d="M13.6968 21.3274C11.1777 21.3274 6.14893 22.4481 6.14893 24.6728V27.1819H21.2447V24.6728C21.2447 22.4481 16.2159 21.3274 13.6968 21.3274ZM19.3577 25.5092H8.0359V24.6812C8.2246 24.079 11.1494 23.0001 13.6968 23.0001C16.2442 23.0001 19.169 24.079 19.3577 24.6728V25.5092Z" fill="white"/>
</svg>
