<svg width="28" height="24" viewBox="0 0 28 24" fill="none" xmlns="http://www.w3.org/2000/svg">
<path d="M23.0334 21.0452H26.2823V23.4573H18.1601V16.2211H20.8675V19.5136C23.3447 17.7407 24.9286 15.0392 24.9286 12C24.9286 7.09146 20.7863 3.02714 15.4527 2.43618V0C22.2889 0.603015 27.636 5.7407 27.636 12C27.636 15.606 25.8491 18.8382 23.0334 21.0452ZM3.26941 12C3.26941 8.9608 4.85323 6.24724 7.3305 4.48643V7.77889H10.0379V0.542714H1.91571V2.95477H5.16458C2.34889 5.16181 0.562012 8.39397 0.562012 12C0.562012 18.2593 5.90912 23.397 12.7453 24V21.5638C7.41172 20.9729 3.26941 16.9085 3.26941 12ZM19.8387 7.30854L12.1767 14.1347L8.34577 10.7216L6.43706 12.4221L12.1767 17.5357L21.7474 9.00904L19.8387 7.30854Z" fill="white"/>
</svg>
